<svg width="101" height="101" viewBox="0 0 101 101" fill="none" xmlns="http://www.w3.org/2000/svg">
<mask id="mask0_1_11" style="mask-type:luminance" maskUnits="userSpaceOnUse" x="0" y="0" width="101" height="101">
<path d="M0 0H101V101H0V0Z" fill="white"/>
</mask>
<g mask="url(#mask0_1_11)">
<path d="M27.5729 27.4115C27.349 26.125 27.2396 24.8229 27.2396 23.4896C27.2396 10.5365 37.776 0 50.7292 0C63.6823 0 74.224 10.5365 74.224 23.4896C74.224 24.7969 74.1146 26.125 73.8906 27.4115C73.7344 28.2969 72.9844 28.9167 72.1198 28.9167C72.0312 28.9167 71.9219 28.9167 71.8125 28.8958C70.8333 28.7396 70.1719 27.7865 70.3281 26.8125C70.5052 25.7292 70.5937 24.6198 70.5937 23.4896C70.5937 12.5313 61.6667 3.60938 50.7083 3.60938C39.75 3.60938 30.8281 12.5313 30.8281 23.4896C30.8281 24.599 30.9167 25.7292 31.0937 26.8125C31.2448 27.7865 30.6042 28.7396 29.6094 28.8958C28.6354 29.0469 27.724 28.3854 27.5729 27.4115ZM101.104 58.6771C100.818 59.6042 100.198 60.3594 99.3542 60.8229L89.8125 65.9583C89.2812 66.25 88.6823 66.401 88.1042 66.401C87.75 66.401 87.3958 66.3594 87.0677 66.25C86.5365 66.0938 86.0937 65.8021 85.6927 65.4479L82.2604 69.125C84.1875 71.6302 84.0989 74.2188 83.125 76.1458C82.1719 77.9844 80.4479 79.3125 78.6094 79.8438C79.0052 81.7031 78.474 83.6302 77.0156 85.1146C75.7292 86.4167 73.8698 87.2396 71.8333 87.1042C71.7448 88.3229 71.1927 89.4323 70.3906 90.2917C68.974 91.7969 66.7187 92.6406 64.4167 92.375C64.3489 93.724 63.7708 94.9896 62.6875 95.9844C61.4271 97.1771 59.5417 97.8854 57.5052 97.8854C56.5521 97.8854 55.5781 97.7083 54.6042 97.3802C54.3854 97.6875 54.1615 98 53.875 98.2656L52.7031 99.4375C51.526 100.609 50 101.188 48.4531 101.188C46.9219 101.188 45.375 100.609 44.1979 99.4375C43.401 98.6406 42.8906 97.6667 42.651 96.6458C42.0521 96.8229 41.4531 96.9583 40.8542 96.9583C39.3281 96.9583 37.776 96.3802 36.6042 95.2083C35.6771 94.2813 35.1198 93.1042 34.9427 91.9115C34.5885 91.974 34.2344 92.0208 33.8594 92.0208C32.3333 92.0208 30.7812 91.4427 29.6094 90.2708C28.5469 89.2083 27.9896 87.8125 27.8802 86.4167C27.7708 86.4167 27.6615 86.4427 27.5469 86.4427C25.9323 86.4427 24.4271 85.8229 23.2969 84.6927C21.1042 82.5 20.9948 79.0469 22.901 76.6771L15.2135 65.849C14.9479 66.026 14.6615 66.1823 14.3281 66.2708C13.9739 66.3802 13.6458 66.4271 13.2917 66.4271C12.6927 66.4271 12.1146 66.2708 11.5833 65.9844L2.08853 60.8229C1.24478 60.3594 0.624992 59.6042 0.338534 58.6771C0.046867 57.7448 0.161451 56.7708 0.624992 55.9271L14.375 30.3802C14.8385 29.5365 15.5937 28.9167 16.5208 28.6302C17.4531 28.3385 18.4271 28.4531 19.2656 28.9167L28.8125 34.0521C29.651 34.5208 30.2708 35.2708 30.5625 36.2031C30.849 37.1302 30.7396 38.1042 30.2708 38.9479L30.1615 39.1458C31.625 40.1875 32.6406 40.6302 34.349 40.4323C37.0677 40.0521 46.3489 38.9688 50.3333 40.6719C50.4635 40.7396 50.5781 40.8073 50.7083 40.875C50.8646 40.7865 50.9948 40.6979 51.1719 40.6302C55.2031 38.9271 64.5052 40.0104 67.25 40.3854C68.8646 40.5625 69.8854 40.1667 71.2812 39.1667L71.1458 38.9479C70.6823 38.1042 70.5937 37.1094 70.8594 36.2031C71.1458 35.2708 71.7656 34.5208 72.6094 34.0521L82.151 28.9167C82.9896 28.4531 83.9635 28.3646 84.8958 28.6302C85.8281 28.9167 86.5781 29.5365 87.0417 30.3802L100.792 55.9271C101.281 56.7917 101.391 57.7656 101.104 58.6771ZM52.6354 43.9531C48.4531 45.875 46.0573 52.9844 43.8698 61.0208C45.8177 61.6198 47.2969 61.6667 48.4948 61.1563C50.4219 60.3125 52.0833 57.901 53.8958 53.2708L54.6927 51.2552L79.2292 66.4271C79.3594 66.5156 79.4687 66.6042 79.6042 66.6927L83.724 62.2604L73.0052 42.3542C71.3437 43.4844 69.4844 44.2604 66.8073 43.9531C59.3437 42.9531 54.3177 43.2188 52.6354 43.9531ZM13.3333 62.7917L27.0833 37.2396L17.5417 32.1042L3.79166 57.6354L13.3333 62.7917ZM29.2969 82.099L29.6094 81.7917C29.6302 81.7708 29.6302 81.7708 29.651 81.7448L31.5573 79.8438C32.4635 78.9115 32.4635 77.4063 31.5365 76.4792C30.6042 75.5469 29.0781 75.5469 28.1458 76.4792L25.9115 78.7135C24.9792 79.6406 24.9792 81.1719 25.9115 82.099C26.8177 83.0104 28.3906 83.0104 29.2969 82.099ZM35.5885 87.6823L39.8594 83.4063C40.7917 82.4792 40.7917 80.9479 39.8594 80.0208C39.3958 79.5521 38.776 79.3125 38.1771 79.3125C37.5781 79.3125 36.9583 79.5521 36.4948 80.0208L34.125 82.3646C34.1042 82.3906 34.1042 82.3906 34.0781 82.4115L32.1771 84.3125C31.2708 85.2448 31.2708 86.75 32.1979 87.6823C33.1302 88.6094 34.6562 88.6094 35.5885 87.6823ZM42.5833 92.6406L44.1094 91.1146C44.1562 91.0677 44.1979 91 44.2448 90.9375L44.8854 90.2917C45.7292 89.3646 45.7292 87.901 44.8177 86.9948C43.8906 86.0625 42.3594 86.0625 41.4323 86.9948L39.1979 89.2292C38.2656 90.1615 38.2656 91.6875 39.1979 92.6198C40.125 93.5677 41.651 93.5677 42.5833 92.6406ZM51.4375 95.5625C51.4167 95.5417 51.375 95.5208 51.3489 95.4948L51.8802 94.875C52.2135 94.0156 52.0365 93.0156 51.3489 92.3073C50.9062 91.8646 50.3125 91.6198 49.6667 91.6198C49.026 91.6198 48.4271 91.8646 47.9844 92.3073L47.5208 92.7708C47.4739 92.8177 47.4323 92.8854 47.3854 92.9271L46.7448 93.5677C45.8802 94.5 45.9062 95.9635 46.8125 96.8698C47.7396 97.7969 49.2708 97.7969 50.1979 96.8698L51.375 95.6979C51.3958 95.651 51.4167 95.6094 51.4375 95.5625ZM77.3021 69.4792L56.4219 56.5729C54.4739 60.9531 52.4792 63.3698 49.9114 64.474C47.5 65.5156 44.6667 65.3177 41.0104 63.8333L39.526 63.2344L39.9271 61.6875C41.8958 54.2031 43.9115 47.5833 47.3229 43.599C44.9323 43.2188 40.6146 43.2188 34.7656 44.0156C31.9792 44.3281 30.1198 43.5104 28.4115 42.3333L17.4531 62.6823L25.4687 73.974L25.5573 73.8854C27.901 71.5417 31.7135 71.5417 34.0573 73.8854C34.7656 74.5938 35.2344 75.4167 35.5 76.3021C37.7344 75.1927 40.526 75.5469 42.3854 77.4271C43.8229 78.8698 44.375 80.8854 44.0469 82.7656C45.2604 82.9635 46.4115 83.4948 47.3437 84.4271C48.3646 85.4427 48.9167 86.75 49.0469 88.099C50.7969 87.9479 52.6146 88.4792 53.875 89.7396C54.9844 90.849 55.5781 92.3073 55.625 93.8802C57.5052 94.5677 59.3437 94.125 60.2083 93.3021C61.2031 92.375 60.7604 91.1771 60.1198 90.2917L57.4427 88.3646C56.6406 87.7917 56.4427 86.6615 57.0417 85.8438C57.6198 85.026 58.7448 84.849 59.5677 85.4427L62.4896 87.5469C62.5573 87.5938 62.5781 87.6563 62.6458 87.7031L62.6667 87.6823C64.4792 89.3438 66.7604 88.8073 67.7344 87.7708C68.4687 86.9948 68.3125 86.1094 67.3385 85.1563L62.5312 81.7708C61.7135 81.1927 61.5156 80.0625 62.0885 79.2448C62.6667 78.4271 63.7969 78.224 64.6146 78.8021L69.5729 82.3021C69.6198 82.3438 69.6406 82.3906 69.6823 82.4323L69.7083 82.4115C71.5 83.9583 73.4062 83.5625 74.401 82.5208C74.7552 82.1667 75.7969 80.8385 74.3125 79.1771L74.224 79.0677L67.7812 74.9271C66.9375 74.3958 66.6979 73.2656 67.25 72.4271C67.7812 71.5833 68.9115 71.3385 69.75 71.8958L76.724 76.3906C77.7448 76.5 79.2292 75.724 79.8906 74.4375C81.0208 72.3125 78.7396 70.4115 77.3021 69.4792ZM97.651 57.6354L83.901 32.0833L74.3542 37.2188L88.1042 62.7708L97.651 57.6354ZM90.3854 58.2969C91.8906 58.2969 93.0885 57.0833 93.0885 55.599C93.0885 54.0938 91.8698 52.8958 90.3854 52.8958C88.901 52.8958 87.6875 54.1146 87.6875 55.599C87.6875 57.0833 88.8802 58.2969 90.3854 58.2969ZM11.0521 52.875C9.54687 52.875 8.35416 54.0938 8.35416 55.5729C8.35416 57.0833 9.5677 58.276 11.0521 58.276C12.5365 58.276 13.7552 57.0573 13.7552 55.5729C13.776 54.0938 12.5573 52.875 11.0521 52.875ZM57.8385 28.0104C57.8385 24.5313 55.0052 21.6771 51.5052 21.6771H49.6927C48.1875 21.6771 46.9896 20.4583 46.9896 18.974C46.9896 17.4688 48.2083 16.276 49.6927 16.276H51.5052C52.3698 16.276 53.1667 16.6719 53.6771 17.3594C54.276 18.1563 55.401 18.3125 56.1979 17.7135C56.9948 17.1146 57.151 15.9844 56.5521 15.1875C55.5365 13.8385 54.0312 12.9948 52.3698 12.776C52.3698 12.7292 52.3906 12.7083 52.3906 12.6667V10.849C52.3906 9.85417 51.5937 9.03125 50.5781 9.03125C49.5781 9.03125 48.7604 9.85417 48.7604 10.849V12.6667C48.7604 12.6875 48.7812 12.7292 48.7812 12.7552C45.7292 13.1979 43.3333 15.8073 43.3333 18.9948C43.3333 22.474 46.1719 25.3281 49.6667 25.3281H51.4844C52.9896 25.3281 54.1875 26.5469 54.1875 28.0313C54.1875 29.5156 52.9687 30.7344 51.4844 30.7344H49.6667C48.8073 30.7344 48.0052 30.3333 47.5 29.6458C46.901 28.849 45.7708 28.6927 44.9739 29.2917C44.1771 29.8906 44.0208 31.0208 44.6198 31.8177C45.6406 33.1875 47.1458 34.0104 48.8073 34.2552C48.8073 34.2969 48.7812 34.3177 48.7812 34.3646V36.1771C48.7812 37.1771 49.5781 37.9948 50.5989 37.9948C51.5937 37.9948 52.4114 37.1771 52.4114 36.1771V34.3177C52.4114 34.2969 52.3906 34.2552 52.3906 34.2292C55.4687 33.8125 57.8385 31.1979 57.8385 28.0104Z" fill="#1791C8"/>
</g>
</svg>
