<svg width="275" height="208" viewBox="0 0 275 208" fill="none" xmlns="http://www.w3.org/2000/svg">
<path d="M96.9139 77.9948L105.987 36.3281H75.091L64.6014 84.0885L53.5493 91.599L58.7889 110.594L47.3097 163.172H7.76807L37.3879 27.8229L20.5233 6H140.565C141.794 6 142.976 6.38021 144.107 7.13542C145.242 7.89063 146.284 8.78646 147.226 9.82812C148.169 10.9583 148.877 12.0938 149.351 13.2292C149.919 14.6458 150.107 15.6823 149.919 16.3438L132.346 97.1302L72.1118 127.031L63.1847 95L96.9139 77.9948Z" stroke="white" stroke-width="11.2474"/>
<path d="M96.92 78.0006L105.983 36.3339H75.0867L64.6075 84.0839L53.545 91.6048L58.795 110.584L47.3158 163.167H7.77417L37.3992 27.8339L20.5242 6.00061H140.566C141.785 6.00061 142.967 6.37561 144.108 7.12561C145.243 7.89124 146.285 8.79228 147.233 9.83394C148.175 10.9589 148.884 12.0944 149.358 13.2298C149.925 14.6464 150.113 15.6881 149.92 16.3548L132.337 97.1256L72.1075 127.021L63.1908 95.0006L96.92 78.0006Z" fill="black"/>
<path d="M133.393 163.172H93.8567L123.331 27.9688L106.612 6H167.695L181.013 71.474L226.508 6H267.185L232.742 163.172H193.487L207.94 96.9844L190.794 123.203C190.607 123.396 190.367 123.583 190.086 123.771C189.612 123.964 189.378 124.198 189.378 124.479L186.117 127.74L158.055 148.859L149.555 98.8281L147.992 96.1354L133.393 163.172Z" stroke="white" stroke-width="11.2474"/>
<path d="M133.4 163.167H93.8586L123.338 27.9589L106.609 6.00061H167.692L181.004 71.4798L226.504 6.00061H267.192L232.734 163.167H193.484L207.942 96.9798L190.796 123.209C190.598 123.391 190.364 123.579 190.088 123.771C189.614 123.969 189.379 124.204 189.379 124.48L186.109 127.751L158.046 148.855L149.546 98.8339L147.984 96.1464L133.4 163.167Z" fill="#1791C8"/>
<mask id="mask0_1_201" style="mask-type:luminance" maskUnits="userSpaceOnUse" x="171" y="83" width="54" height="47">
<path d="M171.466 83.974H224.799V129.792H171.466V83.974Z" fill="white"/>
</mask>
<g mask="url(#mask0_1_201)">
<mask id="mask1_1_201" style="mask-type:luminance" maskUnits="userSpaceOnUse" x="172" y="84" width="53" height="45">
<path d="M222.638 84.0209C226.351 96.3802 186.023 113.672 172.357 119.938L172.435 121.448C172.575 124.073 173.523 126.406 175.075 128.537C216.518 110.672 229.69 98.8021 222.638 84.0209Z" fill="white"/>
</mask>
<g mask="url(#mask1_1_201)">
<path d="M172.357 84.0209V128.537H229.69V84.0209H172.357Z" fill="url(#paint0_linear_1_201)"/>
</g>
</g>
<mask id="mask2_1_201" style="mask-type:luminance" maskUnits="userSpaceOnUse" x="175" y="92" width="54" height="45">
<path d="M175.466 92.4584H228.799V136.458H175.466V92.4584Z" fill="white"/>
</mask>
<g mask="url(#mask2_1_201)">
<mask id="mask3_1_201" style="mask-type:luminance" maskUnits="userSpaceOnUse" x="176" y="93" width="53" height="44">
<path fill-rule="evenodd" clip-rule="evenodd" d="M226.06 94.8125C223.326 109.167 195.086 122.49 176.346 130.203L176.336 130.208C178.648 132.359 181.596 134.313 184.956 136.182C222.935 119.396 233.003 107.219 226.372 93C226.305 93.6146 226.201 94.2187 226.06 94.8125Z" fill="white"/>
</mask>
<g mask="url(#mask3_1_201)">
<path d="M176.336 93V136.182H233.003V93H176.336Z" fill="url(#paint1_linear_1_201)"/>
</g>
</g>
<mask id="mask4_1_201" style="mask-type:luminance" maskUnits="userSpaceOnUse" x="167" y="120" width="72" height="77">
<path d="M167.466 120.458H238.133V196.458H167.466V120.458Z" fill="white"/>
</mask>
<g mask="url(#mask4_1_201)">
<mask id="mask5_1_201" style="mask-type:luminance" maskUnits="userSpaceOnUse" x="168" y="121" width="70" height="75">
<path fill-rule="evenodd" clip-rule="evenodd" d="M200.211 157.646C176.112 147.479 162.904 135.88 170.414 121.557C171.93 149.729 250.451 146.167 235.487 195.625C233.326 173.667 216.023 165.875 200.211 157.646Z" fill="white"/>
</mask>
<g mask="url(#mask5_1_201)">
<path d="M162.904 121.557V195.625H250.445V121.557H162.904Z" fill="url(#paint2_linear_1_201)"/>
</g>
</g>
<mask id="mask6_1_201" style="mask-type:luminance" maskUnits="userSpaceOnUse" x="163" y="131" width="70" height="77">
<path d="M163.466 131.125H232.799V207.974H163.466V131.125Z" fill="white"/>
</mask>
<g mask="url(#mask6_1_201)">
<mask id="mask7_1_201" style="mask-type:luminance" maskUnits="userSpaceOnUse" x="164" y="131" width="69" height="77">
<path fill-rule="evenodd" clip-rule="evenodd" d="M166.612 131.297C170.086 162.344 247.758 160 230.211 207.932C225.971 164.886 149.45 164.026 166.612 131.297Z" fill="white"/>
</mask>
<g mask="url(#mask7_1_201)">
<path d="M149.45 131.297V207.932H247.758V131.297H149.45Z" fill="url(#paint3_linear_1_201)"/>
</g>
</g>
<path d="M5.5625 180.596C7.46354 180.377 9.15625 180.377 10.6458 180.596C13.6719 181.21 15.2292 183.242 15.3125 186.7C15.2552 190.648 13.401 193.215 9.75 194.408C8.91667 194.648 7.85417 194.783 6.5625 194.825C6.5625 195.34 6.55208 195.861 6.54167 196.387C6.54167 196.919 6.54167 197.45 6.54167 197.992C5.79167 198.143 4.96354 198.252 4.0625 198.325C3.17187 198.408 2.19792 198.46 1.14583 198.492C1.04687 195.356 1 192.361 1 189.512C1 186.669 1.03125 183.945 1.10417 181.346C1.38021 181.127 2.86458 180.877 5.5625 180.596ZM6.58333 190.242C8.84375 190.023 10.0885 189.34 10.3125 188.2C10.4792 186.882 10.1979 186.012 9.47917 185.596C8.92187 185.294 7.94271 185.262 6.54167 185.512C6.55208 186.252 6.5625 187.012 6.5625 187.804C6.57292 188.585 6.58333 189.398 6.58333 190.242Z" fill="black"/>
<path d="M36.924 191.179C36.8927 192.111 36.8823 193.09 36.8823 194.117C36.8823 195.148 36.8719 196.242 36.8615 197.408C35.9969 197.549 35.1219 197.658 34.2365 197.742C33.3615 197.825 32.4656 197.877 31.549 197.908C31.4344 194.731 31.3719 191.742 31.3615 188.95C31.3458 186.158 31.3667 183.512 31.424 181.012C32.5594 180.637 33.6375 180.335 34.6531 180.096C35.6636 179.846 36.6167 179.658 37.5073 179.533C37.7 179.939 37.9344 180.481 38.2156 181.158C38.5073 181.825 38.8406 182.653 39.2156 183.637C39.5906 184.611 39.9136 185.408 40.1948 186.033C40.4865 186.648 40.7052 187.096 40.8615 187.387C41.4708 186.512 42.5386 184.07 44.0698 180.054C45.7886 179.929 47.7677 180.012 50.0073 180.304C50.0906 182.721 50.1323 185.34 50.1323 188.158C50.1427 190.981 50.1115 194.044 50.0281 197.346C49.2052 197.46 48.3511 197.564 47.4656 197.658C46.5906 197.742 45.674 197.804 44.7156 197.846C44.6583 197.611 44.6219 195.585 44.6115 191.762C42.2208 196.346 40.9448 198.648 40.7781 198.679L36.924 191.179Z" fill="black"/>
<path d="M54.351 196.471C53.0854 195.596 52.1739 194.304 51.6218 192.596C51.3302 191.512 51.2052 190.45 51.2468 189.408C51.8145 183.106 55.101 179.762 61.101 179.387C63.5437 179.179 65.5645 180.023 67.1635 181.908C67.8822 183.023 68.3302 184.294 68.4968 185.721C68.6322 187.252 68.4447 188.846 67.9343 190.512C67.2781 192.335 66.4135 193.762 65.3302 194.804C61.8822 198.023 58.226 198.58 54.351 196.471ZM62.976 187.158C62.5593 185.856 61.6635 185.257 60.2885 185.367C59.1062 185.424 58.1479 185.903 57.4135 186.804C56.6062 187.96 56.4031 189.127 56.8093 190.304C57.4343 191.554 58.3614 192.111 59.601 191.971C61.0281 191.736 62.0854 190.861 62.7677 189.346C63.0697 188.57 63.1427 187.841 62.976 187.158Z" fill="black"/>
<path d="M69.7419 181.012L74.6585 179.825C75.4189 180.825 76.221 181.939 77.0544 183.158C77.8877 184.382 78.7835 185.736 79.7419 187.221C79.6273 185.346 79.6064 183.007 79.6794 180.2C82.2054 179.981 84.0387 179.986 85.1794 180.221C85.3564 186.554 85.3564 192.148 85.1794 196.991C84.3148 197.325 83.5439 197.585 82.8669 197.762C82.1846 197.929 81.5856 198.002 81.0752 197.991C79.5596 195.715 77.5648 192.991 75.096 189.825V197.991C72.2054 198.127 70.4137 198.106 69.721 197.929C69.6637 195.429 69.6377 192.783 69.6377 189.991C69.6481 187.189 69.6846 184.195 69.7419 181.012Z" fill="black"/>
<path d="M98.7136 180.033C98.797 180.867 98.8282 181.679 98.8178 182.471C98.8022 183.262 98.7605 184.044 98.6928 184.804L91.6303 185.492L91.6511 187.158L98.4428 186.575V191.137C98.3022 191.169 97.672 191.236 96.547 191.346C95.4324 191.445 93.823 191.59 91.7136 191.783L91.7345 193.367C96.1199 192.856 98.4532 192.611 98.7345 192.637C98.8699 194.502 98.8699 196.054 98.7345 197.304C95.8699 197.736 91.8022 198.08 86.5261 198.346C86.4532 195.752 86.4115 193.028 86.4011 190.179C86.4011 187.335 86.4324 184.346 86.5053 181.221C91.172 180.57 95.2397 180.174 98.7136 180.033Z" fill="black"/>
<path d="M106.038 198.304C102.881 197.997 101.1 197.674 100.683 197.325C101.517 195.965 102.334 194.585 103.142 193.179C103.959 191.762 104.777 190.32 105.6 188.846C104.6 187.887 103.631 186.945 102.704 186.012C101.772 185.07 100.85 184.116 99.9333 183.158L104.142 179.408C104.735 180.033 105.392 180.695 106.1 181.387C106.819 182.085 107.61 182.82 108.475 183.596C108.892 182.71 109.293 181.887 109.683 181.137C110.084 180.377 110.475 179.689 110.85 179.075C111.944 179.241 112.918 179.465 113.767 179.741C114.61 180.007 115.334 180.314 115.933 180.658C112.35 187.59 109.048 193.471 106.038 198.304Z" fill="black"/>
<path d="M123.859 191.179C123.828 192.111 123.817 193.09 123.817 194.117C123.817 195.148 123.807 196.242 123.796 197.408C122.932 197.549 122.057 197.658 121.171 197.742C120.296 197.825 119.4 197.877 118.484 197.908C118.369 194.731 118.307 191.742 118.296 188.95C118.281 186.158 118.301 183.512 118.359 181.012C119.494 180.637 120.572 180.335 121.588 180.096C122.598 179.846 123.551 179.658 124.442 179.533C124.635 179.939 124.869 180.481 125.15 181.158C125.442 181.825 125.775 182.653 126.15 183.637C126.525 184.611 126.848 185.408 127.13 186.033C127.421 186.648 127.64 187.096 127.796 187.387C128.406 186.512 129.473 184.07 131.005 180.054C132.723 179.929 134.703 180.012 136.942 180.304C137.025 182.721 137.067 185.34 137.067 188.158C137.078 190.981 137.046 194.044 136.963 197.346C136.14 197.46 135.286 197.564 134.4 197.658C133.525 197.742 132.609 197.804 131.65 197.846C131.593 197.611 131.557 195.585 131.546 191.762C129.156 196.346 127.88 198.648 127.713 198.679L123.859 191.179Z" fill="#1791C8"/>
<path d="M144.078 195.721C144.005 196.054 143.937 196.382 143.869 196.7C143.796 197.023 143.723 197.346 143.64 197.679C140.999 197.846 139.171 197.731 138.161 197.325C139.328 192.95 140.317 189.325 141.14 186.45C141.958 183.564 142.604 181.403 143.078 179.971C145.244 179.486 147.208 179.304 148.973 179.429C149.973 181.986 150.953 184.637 151.911 187.387C152.869 190.127 153.807 192.992 154.723 195.992C153.848 196.492 151.973 196.919 149.098 197.262C148.984 196.929 148.89 196.606 148.807 196.283C148.723 195.966 148.63 195.653 148.536 195.346C147.921 195.387 147.249 195.445 146.515 195.512C145.791 195.585 144.979 195.653 144.078 195.721ZM147.203 190.95C146.994 190.231 146.791 189.585 146.598 189.012C146.416 188.445 146.249 187.95 146.098 187.533C145.942 188.132 145.791 188.731 145.64 189.325C145.484 189.924 145.328 190.523 145.161 191.117L147.203 190.95Z" fill="#1791C8"/>
<path d="M167.584 192.658C167.959 193.158 168.366 193.71 168.813 194.304C169.272 194.887 169.756 195.528 170.272 196.221C169.782 196.679 169.235 197.158 168.626 197.658C168.027 198.158 167.355 198.679 166.605 199.221C166.449 199.106 165.261 197.575 163.043 194.616C162.793 194.648 162.527 194.669 162.251 194.679C161.97 194.695 161.688 194.71 161.397 194.721C161.397 195.236 161.386 195.757 161.376 196.283C161.376 196.814 161.376 197.346 161.376 197.887C159.886 198.179 158.084 198.351 155.959 198.408C155.876 195.257 155.824 192.257 155.813 189.408C155.813 186.564 155.845 183.84 155.918 181.241C156.178 181.049 157.668 180.799 160.376 180.491C161.334 180.382 162.235 180.325 163.084 180.325C163.928 180.325 164.72 180.382 165.459 180.491C168.501 181.106 170.053 183.137 170.126 186.596C170.11 189.252 169.261 191.273 167.584 192.658ZM161.418 190.116C163.678 189.924 164.923 189.252 165.147 188.096C165.313 186.778 165.032 185.908 164.313 185.491C163.756 185.215 162.761 185.179 161.334 185.387C161.36 186.153 161.376 186.929 161.376 187.721C161.386 188.502 161.402 189.299 161.418 190.116Z" fill="#1791C8"/>
<path d="M182.321 188.096C182.764 188.585 183.331 189.236 184.029 190.054C184.722 190.877 185.555 191.861 186.529 193.012C186.154 193.554 185.639 194.195 184.988 194.929C184.331 195.669 183.534 196.492 182.592 197.408C182.425 197.341 181.081 195.742 178.571 192.617C178.305 192.924 178.04 193.242 177.779 193.575C177.514 193.898 177.243 194.221 176.967 194.554C176.951 195.044 176.946 195.507 176.946 195.95C176.946 196.398 176.956 196.825 176.988 197.242C175.18 197.533 173.331 197.689 171.446 197.7C171.389 194.731 171.363 191.814 171.363 188.95C171.373 186.075 171.415 183.216 171.488 180.367C172.363 180.216 173.248 180.096 174.154 180.012C175.071 179.919 176.019 179.877 177.008 179.887C177.019 180.919 177.029 181.903 177.029 182.846C177.029 183.794 177.029 184.716 177.029 185.617C178.456 183.882 180.165 181.799 182.154 179.367C183.43 180.064 184.904 181.21 186.571 182.804C186.321 183.195 184.904 184.96 182.321 188.096Z" fill="#1791C8"/>
<path d="M199.961 180.033C200.045 180.867 200.076 181.679 200.066 182.471C200.05 183.262 200.008 184.044 199.941 184.804L192.878 185.492L192.899 187.158L199.691 186.575V191.137C199.55 191.169 198.92 191.236 197.795 191.346C196.68 191.445 195.071 191.59 192.961 191.783L192.982 193.367C197.368 192.856 199.701 192.611 199.982 192.637C200.118 194.502 200.118 196.054 199.982 197.304C197.118 197.736 193.05 198.08 187.774 198.346C187.701 195.752 187.659 193.028 187.649 190.179C187.649 187.335 187.68 184.346 187.753 181.221C192.42 180.57 196.487 180.174 199.961 180.033Z" fill="#1791C8"/>
<path d="M211.556 185.117C211.582 187.757 211.598 190.09 211.598 192.117C211.598 194.132 211.567 195.846 211.514 197.262C210.233 197.471 209.145 197.611 208.244 197.679C207.337 197.752 206.603 197.757 206.035 197.7C206.004 195.773 205.983 193.804 205.973 191.804C205.957 189.804 205.962 187.736 205.994 185.596C204.577 185.721 203.014 185.856 201.306 185.992C201.233 185.231 201.192 184.424 201.181 183.575C201.181 182.715 201.212 181.794 201.285 180.804C203.921 180.502 206.494 180.236 208.994 180.012C211.504 179.778 213.983 179.575 216.431 179.408C216.499 181.007 216.478 182.736 216.369 184.596C215.994 184.679 214.389 184.856 211.556 185.117Z" fill="#1791C8"/>
<defs>
<linearGradient id="paint0_linear_1_201" x1="172.355" y1="106.279" x2="229.69" y2="106.279" gradientUnits="userSpaceOnUse">
<stop stop-color="#CCCCCC"/>
<stop offset="0.0078125" stop-color="#CCCCCC"/>
<stop offset="0.015625" stop-color="#CBCBCB"/>
<stop offset="0.0234375" stop-color="#CACACA"/>
<stop offset="0.03125" stop-color="#C9C9C9"/>
<stop offset="0.0390625" stop-color="#C8C8C8"/>
<stop offset="0.046875" stop-color="#C7C7C7"/>
<stop offset="0.0546875" stop-color="#C6C6C6"/>
<stop offset="0.0625" stop-color="#C5C5C5"/>
<stop offset="0.0703125" stop-color="#C5C5C5"/>
<stop offset="0.078125" stop-color="#C4C4C4"/>
<stop offset="0.0859375" stop-color="#C3C3C3"/>
<stop offset="0.09375" stop-color="#C2C2C2"/>
<stop offset="0.101562" stop-color="#C1C1C1"/>
<stop offset="0.109375" stop-color="#C0C0C0"/>
<stop offset="0.117188" stop-color="#BFBFBF"/>
<stop offset="0.125" stop-color="#BEBEBE"/>
<stop offset="0.132813" stop-color="#BEBEBE"/>
<stop offset="0.140625" stop-color="#BDBDBD"/>
<stop offset="0.148438" stop-color="#BCBCBC"/>
<stop offset="0.15625" stop-color="#BBBBBB"/>
<stop offset="0.164063" stop-color="#BABABA"/>
<stop offset="0.171875" stop-color="#B9B9B9"/>
<stop offset="0.179688" stop-color="#B8B8B8"/>
<stop offset="0.1875" stop-color="#B7B7B7"/>
<stop offset="0.195312" stop-color="#B7B7B7"/>
<stop offset="0.203125" stop-color="#B6B6B6"/>
<stop offset="0.210938" stop-color="#B5B5B5"/>
<stop offset="0.21875" stop-color="#B4B4B4"/>
<stop offset="0.226562" stop-color="#B3B3B3"/>
<stop offset="0.234375" stop-color="#B2B2B2"/>
<stop offset="0.242188" stop-color="#B1B1B1"/>
<stop offset="0.25" stop-color="#B0B0B0"/>
<stop offset="0.257812" stop-color="#AFAFAF"/>
<stop offset="0.265625" stop-color="#AFAFAF"/>
<stop offset="0.273438" stop-color="#AEAEAE"/>
<stop offset="0.28125" stop-color="#ADADAD"/>
<stop offset="0.289062" stop-color="#ACACAC"/>
<stop offset="0.296875" stop-color="#ABABAB"/>
<stop offset="0.304688" stop-color="#AAAAAA"/>
<stop offset="0.3125" stop-color="#A9A9A9"/>
<stop offset="0.320312" stop-color="#A8A8A8"/>
<stop offset="0.328125" stop-color="#A8A8A8"/>
<stop offset="0.335938" stop-color="#A7A7A7"/>
<stop offset="0.34375" stop-color="#A6A6A6"/>
<stop offset="0.351562" stop-color="#A5A5A5"/>
<stop offset="0.359375" stop-color="#A4A4A4"/>
<stop offset="0.367188" stop-color="#A3A3A3"/>
<stop offset="0.375" stop-color="#A2A2A2"/>
<stop offset="0.382812" stop-color="#A1A1A1"/>
<stop offset="0.390625" stop-color="#A1A1A1"/>
<stop offset="0.398437" stop-color="#A0A0A0"/>
<stop offset="0.40625" stop-color="#9F9F9F"/>
<stop offset="0.414062" stop-color="#9E9E9E"/>
<stop offset="0.421875" stop-color="#9D9D9D"/>
<stop offset="0.429687" stop-color="#9C9C9C"/>
<stop offset="0.4375" stop-color="#9B9B9B"/>
<stop offset="0.445312" stop-color="#9A9A9A"/>
<stop offset="0.453125" stop-color="#9A9A9A"/>
<stop offset="0.460937" stop-color="#999999"/>
<stop offset="0.46875" stop-color="#989898"/>
<stop offset="0.476562" stop-color="#979797"/>
<stop offset="0.484375" stop-color="#969696"/>
<stop offset="0.492187" stop-color="#959595"/>
<stop offset="0.5" stop-color="#949494"/>
<stop offset="0.507812" stop-color="#939393"/>
<stop offset="0.515625" stop-color="#939393"/>
<stop offset="0.523438" stop-color="#929292"/>
<stop offset="0.53125" stop-color="#919191"/>
<stop offset="0.539062" stop-color="#909090"/>
<stop offset="0.546875" stop-color="#8F8F8F"/>
<stop offset="0.554688" stop-color="#8E8E8E"/>
<stop offset="0.5625" stop-color="#8D8D8D"/>
<stop offset="0.570312" stop-color="#8C8C8C"/>
<stop offset="0.578125" stop-color="#8C8C8C"/>
<stop offset="0.585938" stop-color="#8B8B8B"/>
<stop offset="0.59375" stop-color="#8A8A8A"/>
<stop offset="0.601562" stop-color="#898989"/>
<stop offset="0.609375" stop-color="#888888"/>
<stop offset="0.617188" stop-color="#878787"/>
<stop offset="0.625" stop-color="#868686"/>
<stop offset="0.632812" stop-color="#858585"/>
<stop offset="0.640625" stop-color="#858585"/>
<stop offset="0.648438" stop-color="#848484"/>
<stop offset="0.65625" stop-color="#838383"/>
<stop offset="0.664062" stop-color="#828282"/>
<stop offset="0.671875" stop-color="#818181"/>
<stop offset="0.679688" stop-color="#808080"/>
<stop offset="0.6875" stop-color="#7F7F7F"/>
<stop offset="0.695312" stop-color="#7E7E7E"/>
<stop offset="0.703125" stop-color="#7D7D7D"/>
<stop offset="0.710938" stop-color="#7D7D7D"/>
<stop offset="0.71875" stop-color="#7C7C7C"/>
<stop offset="0.726562" stop-color="#7B7B7B"/>
<stop offset="0.734375" stop-color="#7A7A7A"/>
<stop offset="0.742188" stop-color="#797979"/>
<stop offset="0.75" stop-color="#787878"/>
<stop offset="0.757812" stop-color="#777777"/>
<stop offset="0.765625" stop-color="#767676"/>
<stop offset="0.773438" stop-color="#767676"/>
<stop offset="0.78125" stop-color="#757575"/>
<stop offset="0.789062" stop-color="#747474"/>
<stop offset="0.796875" stop-color="#737373"/>
<stop offset="0.804688" stop-color="#727272"/>
<stop offset="0.8125" stop-color="#717171"/>
<stop offset="0.820312" stop-color="#707070"/>
<stop offset="0.828125" stop-color="#6F6F6F"/>
<stop offset="0.835938" stop-color="#6F6F6F"/>
<stop offset="0.84375" stop-color="#6E6E6E"/>
<stop offset="0.851562" stop-color="#6D6D6D"/>
<stop offset="0.859375" stop-color="#6C6C6C"/>
<stop offset="0.867188" stop-color="#6B6B6B"/>
<stop offset="0.875" stop-color="#6A6A6A"/>
<stop offset="0.882812" stop-color="#696969"/>
<stop offset="0.890625" stop-color="#686868"/>
<stop offset="0.898438" stop-color="#686868"/>
<stop offset="0.90625" stop-color="#676767"/>
<stop offset="0.9375" stop-color="#666666"/>
<stop offset="1" stop-color="#666666"/>
</linearGradient>
<linearGradient id="paint1_linear_1_201" x1="176.337" y1="114.592" x2="233.001" y2="114.592" gradientUnits="userSpaceOnUse">
<stop stop-color="#CCCCCC"/>
<stop offset="0.0078125" stop-color="#CCCCCC"/>
<stop offset="0.015625" stop-color="#CBCBCB"/>
<stop offset="0.0234375" stop-color="#CACACA"/>
<stop offset="0.03125" stop-color="#C9C9C9"/>
<stop offset="0.0390625" stop-color="#C8C8C8"/>
<stop offset="0.046875" stop-color="#C7C7C7"/>
<stop offset="0.0546875" stop-color="#C6C6C6"/>
<stop offset="0.0625" stop-color="#C5C5C5"/>
<stop offset="0.0703125" stop-color="#C5C5C5"/>
<stop offset="0.078125" stop-color="#C4C4C4"/>
<stop offset="0.0859375" stop-color="#C3C3C3"/>
<stop offset="0.09375" stop-color="#C2C2C2"/>
<stop offset="0.101563" stop-color="#C1C1C1"/>
<stop offset="0.109375" stop-color="#C0C0C0"/>
<stop offset="0.117188" stop-color="#BFBFBF"/>
<stop offset="0.125" stop-color="#BFBFBF"/>
<stop offset="0.132813" stop-color="#BEBEBE"/>
<stop offset="0.140625" stop-color="#BDBDBD"/>
<stop offset="0.148438" stop-color="#BCBCBC"/>
<stop offset="0.15625" stop-color="#BBBBBB"/>
<stop offset="0.164063" stop-color="#BABABA"/>
<stop offset="0.171875" stop-color="#B9B9B9"/>
<stop offset="0.179688" stop-color="#B8B8B8"/>
<stop offset="0.1875" stop-color="#B8B8B8"/>
<stop offset="0.195313" stop-color="#B7B7B7"/>
<stop offset="0.203125" stop-color="#B6B6B6"/>
<stop offset="0.210938" stop-color="#B5B5B5"/>
<stop offset="0.21875" stop-color="#B4B4B4"/>
<stop offset="0.226563" stop-color="#B3B3B3"/>
<stop offset="0.234375" stop-color="#B2B2B2"/>
<stop offset="0.242188" stop-color="#B1B1B1"/>
<stop offset="0.25" stop-color="#B1B1B1"/>
<stop offset="0.257812" stop-color="#B0B0B0"/>
<stop offset="0.265625" stop-color="#AFAFAF"/>
<stop offset="0.273438" stop-color="#AEAEAE"/>
<stop offset="0.28125" stop-color="#ADADAD"/>
<stop offset="0.289062" stop-color="#ACACAC"/>
<stop offset="0.296875" stop-color="#ABABAB"/>
<stop offset="0.304688" stop-color="#ABABAB"/>
<stop offset="0.3125" stop-color="#AAAAAA"/>
<stop offset="0.320312" stop-color="#A9A9A9"/>
<stop offset="0.328125" stop-color="#A8A8A8"/>
<stop offset="0.335938" stop-color="#A7A7A7"/>
<stop offset="0.34375" stop-color="#A6A6A6"/>
<stop offset="0.351562" stop-color="#A5A5A5"/>
<stop offset="0.359375" stop-color="#A4A4A4"/>
<stop offset="0.367188" stop-color="#A4A4A4"/>
<stop offset="0.375" stop-color="#A3A3A3"/>
<stop offset="0.382812" stop-color="#A2A2A2"/>
<stop offset="0.390625" stop-color="#A1A1A1"/>
<stop offset="0.398438" stop-color="#A0A0A0"/>
<stop offset="0.40625" stop-color="#9F9F9F"/>
<stop offset="0.414063" stop-color="#9E9E9E"/>
<stop offset="0.421875" stop-color="#9D9D9D"/>
<stop offset="0.429688" stop-color="#9D9D9D"/>
<stop offset="0.4375" stop-color="#9C9C9C"/>
<stop offset="0.445313" stop-color="#9B9B9B"/>
<stop offset="0.453125" stop-color="#9A9A9A"/>
<stop offset="0.460938" stop-color="#999999"/>
<stop offset="0.46875" stop-color="#989898"/>
<stop offset="0.476562" stop-color="#979797"/>
<stop offset="0.484375" stop-color="#979797"/>
<stop offset="0.492188" stop-color="#969696"/>
<stop offset="0.5" stop-color="#959595"/>
<stop offset="0.507812" stop-color="#949494"/>
<stop offset="0.515625" stop-color="#939393"/>
<stop offset="0.523437" stop-color="#929292"/>
<stop offset="0.53125" stop-color="#919191"/>
<stop offset="0.539062" stop-color="#909090"/>
<stop offset="0.546875" stop-color="#909090"/>
<stop offset="0.554687" stop-color="#8F8F8F"/>
<stop offset="0.5625" stop-color="#8E8E8E"/>
<stop offset="0.570312" stop-color="#8D8D8D"/>
<stop offset="0.578125" stop-color="#8C8C8C"/>
<stop offset="0.585937" stop-color="#8B8B8B"/>
<stop offset="0.59375" stop-color="#8A8A8A"/>
<stop offset="0.601562" stop-color="#898989"/>
<stop offset="0.609375" stop-color="#898989"/>
<stop offset="0.617187" stop-color="#888888"/>
<stop offset="0.625" stop-color="#878787"/>
<stop offset="0.632812" stop-color="#868686"/>
<stop offset="0.640625" stop-color="#858585"/>
<stop offset="0.648437" stop-color="#848484"/>
<stop offset="0.65625" stop-color="#838383"/>
<stop offset="0.664062" stop-color="#838383"/>
<stop offset="0.671875" stop-color="#828282"/>
<stop offset="0.679687" stop-color="#818181"/>
<stop offset="0.6875" stop-color="#808080"/>
<stop offset="0.695312" stop-color="#7F7F7F"/>
<stop offset="0.703125" stop-color="#7E7E7E"/>
<stop offset="0.710937" stop-color="#7D7D7D"/>
<stop offset="0.71875" stop-color="#7C7C7C"/>
<stop offset="0.726562" stop-color="#7C7C7C"/>
<stop offset="0.734375" stop-color="#7B7B7B"/>
<stop offset="0.742188" stop-color="#7A7A7A"/>
<stop offset="0.75" stop-color="#797979"/>
<stop offset="0.757812" stop-color="#787878"/>
<stop offset="0.765625" stop-color="#777777"/>
<stop offset="0.773438" stop-color="#767676"/>
<stop offset="0.78125" stop-color="#757575"/>
<stop offset="0.789062" stop-color="#757575"/>
<stop offset="0.796875" stop-color="#747474"/>
<stop offset="0.804688" stop-color="#737373"/>
<stop offset="0.8125" stop-color="#727272"/>
<stop offset="0.820312" stop-color="#717171"/>
<stop offset="0.828125" stop-color="#707070"/>
<stop offset="0.835938" stop-color="#6F6F6F"/>
<stop offset="0.84375" stop-color="#6F6F6F"/>
<stop offset="0.851562" stop-color="#6E6E6E"/>
<stop offset="0.859375" stop-color="#6D6D6D"/>
<stop offset="0.867188" stop-color="#6C6C6C"/>
<stop offset="0.875" stop-color="#6B6B6B"/>
<stop offset="0.882812" stop-color="#6A6A6A"/>
<stop offset="0.890625" stop-color="#696969"/>
<stop offset="0.898438" stop-color="#686868"/>
<stop offset="0.90625" stop-color="#686868"/>
<stop offset="0.914062" stop-color="#676767"/>
<stop offset="0.921875" stop-color="#666666"/>
<stop offset="0.9375" stop-color="#666666"/>
<stop offset="1" stop-color="#666666"/>
</linearGradient>
<linearGradient id="paint2_linear_1_201" x1="162.903" y1="158.592" x2="250.447" y2="158.592" gradientUnits="userSpaceOnUse">
<stop stop-color="#0A73B0"/>
<stop offset="0.0625" stop-color="#0A73B0"/>
<stop offset="0.0703125" stop-color="#0A74B0"/>
<stop offset="0.078125" stop-color="#0B75B1"/>
<stop offset="0.0859375" stop-color="#0B76B2"/>
<stop offset="0.09375" stop-color="#0C77B3"/>
<stop offset="0.101562" stop-color="#0C78B4"/>
<stop offset="0.109375" stop-color="#0C79B4"/>
<stop offset="0.117188" stop-color="#0D7AB5"/>
<stop offset="0.125" stop-color="#0D7BB6"/>
<stop offset="0.132812" stop-color="#0E7CB7"/>
<stop offset="0.140625" stop-color="#0E7DB7"/>
<stop offset="0.148437" stop-color="#0F7DB8"/>
<stop offset="0.15625" stop-color="#0F7EB9"/>
<stop offset="0.164062" stop-color="#0F7FBA"/>
<stop offset="0.171875" stop-color="#1080BB"/>
<stop offset="0.179688" stop-color="#1081BB"/>
<stop offset="0.1875" stop-color="#1182BC"/>
<stop offset="0.195312" stop-color="#1183BD"/>
<stop offset="0.203125" stop-color="#1284BE"/>
<stop offset="0.210937" stop-color="#1285BE"/>
<stop offset="0.21875" stop-color="#1386BF"/>
<stop offset="0.226562" stop-color="#1387C0"/>
<stop offset="0.234375" stop-color="#1388C1"/>
<stop offset="0.242188" stop-color="#1489C2"/>
<stop offset="0.25" stop-color="#148AC2"/>
<stop offset="0.257812" stop-color="#158BC3"/>
<stop offset="0.265625" stop-color="#158CC4"/>
<stop offset="0.273438" stop-color="#168DC5"/>
<stop offset="0.28125" stop-color="#168EC6"/>
<stop offset="0.289062" stop-color="#168FC6"/>
<stop offset="0.296875" stop-color="#1790C7"/>
<stop offset="0.304687" stop-color="#1791C8"/>
<stop offset="0.3125" stop-color="#1892C9"/>
<stop offset="0.320312" stop-color="#1893C9"/>
<stop offset="0.328125" stop-color="#1994CA"/>
<stop offset="0.335937" stop-color="#1995CB"/>
<stop offset="0.34375" stop-color="#1996CC"/>
<stop offset="0.351562" stop-color="#1A97CD"/>
<stop offset="0.359375" stop-color="#1A98CD"/>
<stop offset="0.367187" stop-color="#1B99CE"/>
<stop offset="0.375" stop-color="#1B9ACF"/>
<stop offset="0.382812" stop-color="#1C9BD0"/>
<stop offset="0.390625" stop-color="#1C9CD1"/>
<stop offset="0.398438" stop-color="#1D9DD1"/>
<stop offset="0.40625" stop-color="#1D9ED2"/>
<stop offset="0.414062" stop-color="#1D9FD3"/>
<stop offset="0.421875" stop-color="#1EA0D4"/>
<stop offset="0.429687" stop-color="#1EA1D4"/>
<stop offset="0.4375" stop-color="#1FA2D5"/>
<stop offset="0.445312" stop-color="#1FA3D6"/>
<stop offset="0.453125" stop-color="#20A4D7"/>
<stop offset="0.460937" stop-color="#20A5D8"/>
<stop offset="0.46875" stop-color="#20A6D8"/>
<stop offset="0.476562" stop-color="#21A7D9"/>
<stop offset="0.484375" stop-color="#21A8DA"/>
<stop offset="0.492187" stop-color="#22A9DB"/>
<stop offset="0.5" stop-color="#22AADB"/>
<stop offset="0.507812" stop-color="#23ABDC"/>
<stop offset="0.515625" stop-color="#23ACDD"/>
<stop offset="0.523438" stop-color="#24ADDE"/>
<stop offset="0.53125" stop-color="#24AEDF"/>
<stop offset="0.539063" stop-color="#24AFDF"/>
<stop offset="0.546875" stop-color="#25B0E0"/>
<stop offset="0.554688" stop-color="#25B1E1"/>
<stop offset="0.5625" stop-color="#26B2E2"/>
<stop offset="0.570313" stop-color="#26B3E3"/>
<stop offset="0.578125" stop-color="#27B4E3"/>
<stop offset="0.585938" stop-color="#27B5E4"/>
<stop offset="0.59375" stop-color="#27B6E5"/>
<stop offset="0.601562" stop-color="#28B7E6"/>
<stop offset="0.609375" stop-color="#28B8E6"/>
<stop offset="0.617188" stop-color="#29B9E7"/>
<stop offset="0.625" stop-color="#29BAE8"/>
<stop offset="0.632812" stop-color="#2ABBE9"/>
<stop offset="0.640625" stop-color="#2ABCEA"/>
<stop offset="0.648437" stop-color="#2BBDEA"/>
<stop offset="0.65625" stop-color="#2BBEEB"/>
<stop offset="0.664062" stop-color="#2BBFEC"/>
<stop offset="0.671875" stop-color="#2CC0ED"/>
<stop offset="0.679687" stop-color="#2CC1ED"/>
<stop offset="0.6875" stop-color="#2DC2EE"/>
<stop offset="0.695312" stop-color="#2DC3EF"/>
<stop offset="0.703125" stop-color="#2EC4F0"/>
<stop offset="0.710937" stop-color="#2EC5F1"/>
<stop offset="0.71875" stop-color="#2EC6F1"/>
<stop offset="0.726562" stop-color="#2FC7F2"/>
<stop offset="0.734375" stop-color="#2FC8F3"/>
<stop offset="0.742188" stop-color="#30C9F4"/>
<stop offset="0.75" stop-color="#30CAF5"/>
<stop offset="0.757812" stop-color="#31CBF5"/>
<stop offset="0.765625" stop-color="#31CCF6"/>
<stop offset="0.773438" stop-color="#32CDF7"/>
<stop offset="0.78125" stop-color="#32CEF8"/>
<stop offset="0.789063" stop-color="#32CFF8"/>
<stop offset="0.796875" stop-color="#33D0F9"/>
<stop offset="0.804688" stop-color="#33D1FA"/>
<stop offset="0.8125" stop-color="#34D2FB"/>
<stop offset="0.820313" stop-color="#34D3FC"/>
<stop offset="0.828125" stop-color="#35D4FC"/>
<stop offset="0.835938" stop-color="#35D5FD"/>
<stop offset="0.84375" stop-color="#35D6FE"/>
<stop offset="0.875" stop-color="#36D7FF"/>
<stop offset="1" stop-color="#36D7FF"/>
</linearGradient>
<linearGradient id="paint3_linear_1_201" x1="149.448" y1="169.614" x2="247.76" y2="169.614" gradientUnits="userSpaceOnUse">
<stop stop-color="#0A73B0"/>
<stop offset="0.125" stop-color="#0A73B0"/>
<stop offset="0.140625" stop-color="#0A73B0"/>
<stop offset="0.148438" stop-color="#0A73B0"/>
<stop offset="0.152344" stop-color="#0A74B0"/>
<stop offset="0.15625" stop-color="#0A74B1"/>
<stop offset="0.160156" stop-color="#0B75B1"/>
<stop offset="0.164063" stop-color="#0B75B2"/>
<stop offset="0.167969" stop-color="#0B76B2"/>
<stop offset="0.171875" stop-color="#0B76B3"/>
<stop offset="0.175781" stop-color="#0C77B3"/>
<stop offset="0.179688" stop-color="#0C77B3"/>
<stop offset="0.183594" stop-color="#0C78B4"/>
<stop offset="0.1875" stop-color="#0C79B4"/>
<stop offset="0.191406" stop-color="#0D79B5"/>
<stop offset="0.195313" stop-color="#0D7AB5"/>
<stop offset="0.199219" stop-color="#0D7AB6"/>
<stop offset="0.203125" stop-color="#0D7BB6"/>
<stop offset="0.207031" stop-color="#0E7BB7"/>
<stop offset="0.210938" stop-color="#0E7CB7"/>
<stop offset="0.214844" stop-color="#0E7CB7"/>
<stop offset="0.21875" stop-color="#0E7DB8"/>
<stop offset="0.222656" stop-color="#0F7EB8"/>
<stop offset="0.226563" stop-color="#0F7EB9"/>
<stop offset="0.230469" stop-color="#0F7FB9"/>
<stop offset="0.234375" stop-color="#0F7FBA"/>
<stop offset="0.238281" stop-color="#1080BA"/>
<stop offset="0.242188" stop-color="#1080BA"/>
<stop offset="0.246094" stop-color="#1081BB"/>
<stop offset="0.25" stop-color="#1081BB"/>
<stop offset="0.253906" stop-color="#1182BC"/>
<stop offset="0.257813" stop-color="#1183BC"/>
<stop offset="0.261719" stop-color="#1183BD"/>
<stop offset="0.265625" stop-color="#1184BD"/>
<stop offset="0.269531" stop-color="#1284BE"/>
<stop offset="0.273438" stop-color="#1285BE"/>
<stop offset="0.277344" stop-color="#1285BE"/>
<stop offset="0.28125" stop-color="#1286BF"/>
<stop offset="0.285156" stop-color="#1386BF"/>
<stop offset="0.289062" stop-color="#1387C0"/>
<stop offset="0.292969" stop-color="#1388C0"/>
<stop offset="0.296875" stop-color="#1388C1"/>
<stop offset="0.300781" stop-color="#1489C1"/>
<stop offset="0.304688" stop-color="#1489C2"/>
<stop offset="0.308594" stop-color="#148AC2"/>
<stop offset="0.3125" stop-color="#148AC2"/>
<stop offset="0.316406" stop-color="#158BC3"/>
<stop offset="0.320313" stop-color="#158BC3"/>
<stop offset="0.324219" stop-color="#158CC4"/>
<stop offset="0.328125" stop-color="#158DC4"/>
<stop offset="0.332031" stop-color="#158DC5"/>
<stop offset="0.335938" stop-color="#168EC5"/>
<stop offset="0.339844" stop-color="#168EC6"/>
<stop offset="0.34375" stop-color="#168FC6"/>
<stop offset="0.347656" stop-color="#168FC6"/>
<stop offset="0.351562" stop-color="#1790C7"/>
<stop offset="0.355469" stop-color="#1791C7"/>
<stop offset="0.359375" stop-color="#1791C8"/>
<stop offset="0.363281" stop-color="#1792C8"/>
<stop offset="0.367188" stop-color="#1892C9"/>
<stop offset="0.371094" stop-color="#1893C9"/>
<stop offset="0.375" stop-color="#1893CA"/>
<stop offset="0.378906" stop-color="#1894CA"/>
<stop offset="0.382812" stop-color="#1994CA"/>
<stop offset="0.386719" stop-color="#1995CB"/>
<stop offset="0.390625" stop-color="#1996CB"/>
<stop offset="0.394531" stop-color="#1996CC"/>
<stop offset="0.398437" stop-color="#1A97CC"/>
<stop offset="0.402344" stop-color="#1A97CD"/>
<stop offset="0.40625" stop-color="#1A98CD"/>
<stop offset="0.410156" stop-color="#1A98CD"/>
<stop offset="0.414062" stop-color="#1B99CE"/>
<stop offset="0.417969" stop-color="#1B99CE"/>
<stop offset="0.421875" stop-color="#1B9ACF"/>
<stop offset="0.425781" stop-color="#1B9BCF"/>
<stop offset="0.429688" stop-color="#1C9BD0"/>
<stop offset="0.433594" stop-color="#1C9CD0"/>
<stop offset="0.4375" stop-color="#1C9CD1"/>
<stop offset="0.441406" stop-color="#1C9DD1"/>
<stop offset="0.445312" stop-color="#1D9DD1"/>
<stop offset="0.449219" stop-color="#1D9ED2"/>
<stop offset="0.453125" stop-color="#1D9FD2"/>
<stop offset="0.457031" stop-color="#1D9FD3"/>
<stop offset="0.460937" stop-color="#1EA0D3"/>
<stop offset="0.464844" stop-color="#1EA0D4"/>
<stop offset="0.46875" stop-color="#1EA1D4"/>
<stop offset="0.472656" stop-color="#1EA1D5"/>
<stop offset="0.476562" stop-color="#1FA2D5"/>
<stop offset="0.480469" stop-color="#1FA2D5"/>
<stop offset="0.484375" stop-color="#1FA3D6"/>
<stop offset="0.488281" stop-color="#1FA4D6"/>
<stop offset="0.492188" stop-color="#20A4D7"/>
<stop offset="0.496094" stop-color="#20A5D7"/>
<stop offset="0.5" stop-color="#20A5D8"/>
<stop offset="0.503906" stop-color="#20A6D8"/>
<stop offset="0.507812" stop-color="#21A6D9"/>
<stop offset="0.511719" stop-color="#21A7D9"/>
<stop offset="0.515625" stop-color="#21A7D9"/>
<stop offset="0.519531" stop-color="#21A8DA"/>
<stop offset="0.523438" stop-color="#22A9DA"/>
<stop offset="0.527344" stop-color="#22A9DB"/>
<stop offset="0.53125" stop-color="#22AADB"/>
<stop offset="0.535156" stop-color="#22AADC"/>
<stop offset="0.539062" stop-color="#23ABDC"/>
<stop offset="0.542969" stop-color="#23ABDD"/>
<stop offset="0.546875" stop-color="#23ACDD"/>
<stop offset="0.550781" stop-color="#23ACDD"/>
<stop offset="0.554688" stop-color="#24ADDE"/>
<stop offset="0.558594" stop-color="#24AEDE"/>
<stop offset="0.5625" stop-color="#24AEDF"/>
<stop offset="0.566406" stop-color="#24AFDF"/>
<stop offset="0.570312" stop-color="#25AFE0"/>
<stop offset="0.574219" stop-color="#25B0E0"/>
<stop offset="0.578125" stop-color="#25B0E0"/>
<stop offset="0.582031" stop-color="#25B1E1"/>
<stop offset="0.585938" stop-color="#26B2E1"/>
<stop offset="0.589844" stop-color="#26B2E2"/>
<stop offset="0.59375" stop-color="#26B3E2"/>
<stop offset="0.597656" stop-color="#26B3E3"/>
<stop offset="0.601562" stop-color="#27B4E3"/>
<stop offset="0.605469" stop-color="#27B4E4"/>
<stop offset="0.609375" stop-color="#27B5E4"/>
<stop offset="0.613281" stop-color="#27B5E4"/>
<stop offset="0.617188" stop-color="#28B6E5"/>
<stop offset="0.621094" stop-color="#28B7E5"/>
<stop offset="0.625" stop-color="#28B7E6"/>
<stop offset="0.628906" stop-color="#28B8E6"/>
<stop offset="0.632812" stop-color="#28B8E7"/>
<stop offset="0.636719" stop-color="#29B9E7"/>
<stop offset="0.640625" stop-color="#29B9E8"/>
<stop offset="0.644531" stop-color="#29BAE8"/>
<stop offset="0.648437" stop-color="#29BAE8"/>
<stop offset="0.652344" stop-color="#2ABBE9"/>
<stop offset="0.65625" stop-color="#2ABCE9"/>
<stop offset="0.660156" stop-color="#2ABCEA"/>
<stop offset="0.664062" stop-color="#2ABDEA"/>
<stop offset="0.667969" stop-color="#2BBDEB"/>
<stop offset="0.671875" stop-color="#2BBEEB"/>
<stop offset="0.675781" stop-color="#2BBEEC"/>
<stop offset="0.679688" stop-color="#2BBFEC"/>
<stop offset="0.683594" stop-color="#2CBFEC"/>
<stop offset="0.6875" stop-color="#2CC0ED"/>
<stop offset="0.691406" stop-color="#2CC1ED"/>
<stop offset="0.695312" stop-color="#2CC1EE"/>
<stop offset="0.699219" stop-color="#2DC2EE"/>
<stop offset="0.703125" stop-color="#2DC2EF"/>
<stop offset="0.707031" stop-color="#2DC3EF"/>
<stop offset="0.710938" stop-color="#2DC3F0"/>
<stop offset="0.714844" stop-color="#2EC4F0"/>
<stop offset="0.71875" stop-color="#2EC5F0"/>
<stop offset="0.722656" stop-color="#2EC5F1"/>
<stop offset="0.726563" stop-color="#2EC6F1"/>
<stop offset="0.730469" stop-color="#2FC6F2"/>
<stop offset="0.734375" stop-color="#2FC7F2"/>
<stop offset="0.738281" stop-color="#2FC7F3"/>
<stop offset="0.742188" stop-color="#2FC8F3"/>
<stop offset="0.746094" stop-color="#30C8F3"/>
<stop offset="0.75" stop-color="#30C9F4"/>
<stop offset="0.753906" stop-color="#30CAF4"/>
<stop offset="0.757812" stop-color="#30CAF5"/>
<stop offset="0.761719" stop-color="#31CBF5"/>
<stop offset="0.765625" stop-color="#31CBF6"/>
<stop offset="0.769531" stop-color="#31CCF6"/>
<stop offset="0.773438" stop-color="#31CCF7"/>
<stop offset="0.777344" stop-color="#32CDF7"/>
<stop offset="0.78125" stop-color="#32CDF7"/>
<stop offset="0.785156" stop-color="#32CEF8"/>
<stop offset="0.789062" stop-color="#32CFF8"/>
<stop offset="0.792969" stop-color="#33CFF9"/>
<stop offset="0.796875" stop-color="#33D0F9"/>
<stop offset="0.800781" stop-color="#33D0FA"/>
<stop offset="0.804688" stop-color="#33D1FA"/>
<stop offset="0.808594" stop-color="#34D1FB"/>
<stop offset="0.8125" stop-color="#34D2FB"/>
<stop offset="0.816406" stop-color="#34D2FB"/>
<stop offset="0.820312" stop-color="#34D3FC"/>
<stop offset="0.824219" stop-color="#35D4FC"/>
<stop offset="0.828125" stop-color="#35D4FD"/>
<stop offset="0.832031" stop-color="#35D5FD"/>
<stop offset="0.835938" stop-color="#35D5FE"/>
<stop offset="0.839844" stop-color="#36D6FE"/>
<stop offset="0.84375" stop-color="#36D6FF"/>
<stop offset="0.875" stop-color="#36D7FF"/>
<stop offset="1" stop-color="#36D7FF"/>
</linearGradient>
</defs>
</svg>
